<?xml version="1.0" encoding="utf-8"?>
<svg viewBox="0 0 729 340" xmlns="http://www.w3.org/2000/svg">
  <path fill="#FFDB1E" opacity="1.000000" stroke="none" d=" M191.850647,183.536224 C200.547882,193.040604 209.245117,202.544983 217.885147,211.986862 C235.062729,200.391632 256.953308,203.391541 269.852997,217.338867 C282.854614,231.396408 280.762634,255.248062 272.443756,266.284821 C259.683350,283.214264 234.114471,286.474487 216.687653,273.006195 C204.221893,263.372040 196.597229,241.347946 209.882462,219.699371 C196.699448,207.989761 183.195129,195.994751 168.964615,183.354721 C151.733978,193.124771 132.481491,194.562134 114.146477,178.869843 C109.870872,182.633820 104.922714,185.762207 101.779488,190.175964 C99.577072,193.268646 99.563988,198.081589 99.053253,202.186005 C97.787567,212.357269 93.830521,216.824539 85.990807,218.835419 C76.061516,221.382217 67.068733,217.457108 63.212982,209.503693 C57.399933,197.512863 61.831593,183.645416 74.212929,180.498581 C78.216537,179.481018 82.720436,180.532730 86.988625,180.406342 C88.727112,180.354858 90.805733,180.173126 92.109856,179.210800 C96.310432,176.111099 100.284157,172.690094 104.198639,169.227112 C105.083801,168.444046 106.088417,166.793884 105.834633,165.875351 C101.842979,151.428146 103.001030,137.855194 112.118118,125.476921 C112.491890,124.969452 112.787102,124.404129 113.326103,123.529594 C107.551254,117.857010 102.057045,112.033813 96.048920,106.800629 C94.073540,105.080063 90.815681,104.348434 88.060089,104.100616 C80.733536,103.441711 76.261848,99.082756 74.472084,92.720711 C72.627357,86.163300 73.731598,79.699081 79.600555,74.834488 C84.631897,70.664169 90.304253,69.632706 95.991035,72.165054 C102.093803,74.882629 106.255547,79.675232 105.966957,86.994957 C105.865089,89.578743 104.646545,92.350792 105.279366,94.670998 C106.028130,97.416306 107.847977,100.137299 109.876137,102.211014 C114.323608,106.758408 119.195152,110.891029 124.347809,115.608963 C135.280792,110.662537 147.271805,110.560677 159.481613,114.676285 C160.757919,115.106499 162.978119,114.179565 164.172668,113.179962 C173.349533,105.500694 182.407578,97.678055 191.413879,89.798615 C192.255127,89.062622 192.838837,87.653595 192.926544,86.509850 C193.142502,83.694016 192.999054,80.850662 193.001389,78.018379 C193.009995,67.522049 200.427094,60.277683 210.725510,59.923981 C221.739975,59.545685 230.543167,69.083656 230.163971,78.105125 C229.777542,87.298950 228.222549,95.494263 218.621445,98.918053 C214.764359,100.293503 209.970917,100.690521 206.022690,99.758209 C200.741760,98.511192 198.177628,102.420799 195.380081,104.534439 C188.689270,109.589539 182.868637,115.821915 176.904617,121.786888 C175.971558,122.720100 175.299744,125.406029 175.905548,126.164352 C186.235855,139.095566 188.102554,153.131821 182.009598,168.381775 C181.828918,168.833984 181.777176,169.337692 181.034897,170.136154 C180.630981,170.959091 180.857498,171.463272 181.084030,171.967438 C181.084030,171.967438 181.018082,171.982529 180.988419,172.278183 C181.333847,172.705780 181.708923,172.837738 182.084015,172.969696 C182.084015,172.969696 182.017624,172.982376 181.987915,173.278351 C182.333466,173.706039 182.708710,173.837738 183.083954,173.969437 C183.083954,173.969437 183.017639,173.982376 182.987335,174.278763 C183.332626,174.706451 183.708237,174.837769 184.083847,174.969086 C184.083847,174.969086 184.017624,174.982452 183.985718,175.279694 C184.330414,175.707474 184.707016,175.838013 185.083633,175.968552 C185.083633,175.968552 185.017532,175.982483 184.984772,176.280273 C185.329147,176.708084 185.706314,176.838120 186.083466,176.968155 C186.083466,176.968155 186.017456,176.982544 185.983643,177.280869 C186.327652,177.708725 186.705490,177.838257 187.083328,177.967804 C187.083328,177.967804 187.017380,177.982620 186.982635,178.281464 C187.326340,178.709335 187.704758,178.838379 188.083176,178.967422 C188.083176,178.967422 188.017319,178.982742 187.980804,179.282532 C188.323853,179.710480 188.703384,179.838654 189.082932,179.966843 C189.082932,179.966843 189.017181,179.982834 188.979706,180.283157 C189.322418,180.711136 189.702591,180.838776 190.082779,180.966415 C190.082779,180.966415 190.017075,180.982925 189.978546,181.283783 C190.320877,181.711777 190.701752,181.838928 191.082626,181.966064 C191.082626,181.966064 191.016953,181.986603 190.945862,182.290909 C191.200058,182.908875 191.525360,183.222549 191.850647,183.536224 M122.040947,123.448387 C111.721298,132.974808 105.947334,144.224380 109.026222,158.658112 C111.767563,171.509384 119.471375,180.920944 131.789520,184.588806 C143.830505,188.174103 155.612961,186.091187 166.483871,178.317841 C189.895630,161.577057 181.630234,131.817795 162.025681,120.846588 C154.395370,116.576477 146.601685,117.232712 138.630203,116.980652 C132.413422,116.784073 127.280296,119.232513 122.040947,123.448387 M252.143219,266.979004 C257.448853,263.570679 261.525574,259.312775 264.290131,253.383179 C272.197601,236.422821 260.267029,218.099960 242.467422,217.191681 C228.220627,216.464691 213.151123,228.432831 215.839996,247.122284 C218.418762,265.046295 236.372818,273.531067 252.143219,266.979004 M88.956207,191.737442 C83.616974,187.265717 79.631432,186.714554 74.542877,190.242126 C70.700790,192.905579 68.441116,196.874878 69.365242,201.525116 C70.265678,206.056122 72.514427,210.194916 77.865135,210.956924 C83.622269,211.776794 87.133591,209.745071 89.790581,204.580017 C91.944977,200.391968 91.162964,196.445343 88.956207,191.737442 M201.008850,81.289200 C202.098129,84.111092 202.607498,87.392502 204.401215,89.656212 C207.805969,93.953079 214.850861,92.615974 219.082657,87.349213 C222.875870,82.628288 222.912109,76.072647 219.169266,71.680527 C215.861130,67.798492 209.736588,66.617897 205.770050,70.347755 C203.245361,72.721771 202.527817,77.017593 201.008850,81.289200 z"/>
  <path fill="#FFDB1D" opacity="1.000000" stroke="none" d=" M429.999146,240.169022 C429.290588,241.111649 428.670105,242.766724 427.857422,242.867203 C425.105957,243.207382 422.286377,242.996933 419.249329,242.996933 C419.249329,224.265533 419.249329,205.881149 419.249329,187.554489 C419.638000,187.349548 419.897369,187.136993 420.190186,187.069489 C427.294006,185.431900 431.639465,188.512421 435.074768,194.692337 C439.932404,203.430832 445.522461,211.762146 450.903320,220.911575 C451.455109,222.079407 451.902985,222.603165 452.842255,223.701553 C452.842255,211.864471 452.842255,200.926987 452.842285,189.989502 C453.835114,188.993515 454.688416,187.408539 455.851929,187.132919 C457.837463,186.662537 460.017639,187.013840 462.563538,187.551666 C463.012726,206.333145 463.014435,224.582962 463.016144,242.832764 C462.189484,242.887909 461.345093,242.853195 460.539001,243.012466 C454.194519,244.265945 450.340240,241.500336 447.294983,235.976578 C442.500580,227.280060 437.067688,218.935547 431.597900,209.802277 C431.044250,208.991837 430.616791,208.641602 430.580017,208.678680 C430.279541,208.981766 429.833191,209.357666 429.834106,209.710403 C429.860291,219.863342 429.933533,230.016174 429.999146,240.169022 z"/>
  <path fill="#FFDB1D" opacity="1.000000" stroke="none" d=" M419.146729,114.443573 C416.232544,106.631409 417.783600,100.035538 423.013428,96.991043 C429.592560,93.161057 438.055634,94.630669 442.947754,100.452644 C447.295227,105.626511 445.579926,111.853638 436.819458,122.099220 C439.376190,125.124069 441.968719,128.191254 444.635681,131.346542 C449.379120,125.224808 449.985443,125.378113 457.732269,134.870667 C455.659332,136.268066 453.472961,137.741943 450.851624,139.509033 C454.554993,142.763855 457.381165,145.247726 460.207306,147.731583 C459.964783,148.169373 459.722260,148.607147 459.479736,149.044937 C454.595734,148.174347 449.243622,150.895065 445.061737,147.309540 C438.123779,148.217514 431.339478,149.419632 424.504303,149.905518 C418.482819,150.333572 413.620483,145.993820 413.034302,140.234100 C412.344116,133.452423 413.341125,127.131264 419.050171,122.478157 C420.084961,121.634743 421.212036,120.904556 422.132782,120.240219 C420.920166,117.923225 420.107941,116.371330 419.146729,114.443573 M427.921783,129.648483 C425.142914,132.339249 421.892029,135.478226 425.045624,139.257767 C428.777588,143.730499 432.208740,138.822464 436.465820,138.151657 C433.427704,134.748566 430.936890,131.958511 427.921783,129.648483 M429.028503,110.825241 C429.767944,111.285454 430.507355,111.745659 431.246796,112.205872 C432.370361,110.057907 433.493896,107.909943 434.985931,105.057449 C429.195068,105.390877 429.195068,105.390877 429.028503,110.825241 z"/>
  <path fill="#FFDA1C" opacity="1.000000" stroke="none" d=" M486.711304,237.670563 C485.801086,239.619446 485.117950,241.224762 484.421356,242.861649 C480.753479,242.861649 477.115326,242.861649 472.242889,242.861649 C479.469025,223.970520 486.496918,205.597687 493.519379,187.238968 C493.696106,187.167953 493.848785,187.056854 494.005554,187.050735 C505.171753,186.613815 505.282074,186.570450 509.449585,197.003250 C514.709534,210.170837 519.767029,223.419296 524.911377,236.633057 C525.648499,238.526352 526.382996,240.420639 527.274597,242.715729 C523.083496,242.715729 519.338623,242.715729 515.454163,242.715729 C514.314575,239.860123 513.280029,236.813644 511.856018,233.961624 C511.398224,233.044662 509.929352,232.119705 508.895721,232.087967 C503.070221,231.909027 497.236084,232.038895 491.405548,231.987183 C487.672974,231.954086 487.600189,234.857834 486.711304,237.670563 M500.931946,205.661865 C500.396027,205.570526 499.426178,205.309998 499.386353,205.412109 C497.328918,210.688477 495.350433,215.995621 493.214417,221.697754 C498.156952,221.697754 502.013855,221.697754 506.837555,221.697754 C504.766632,216.229538 502.913300,211.335892 500.931946,205.661865 z"/>
  <path fill="#FFDA1C" opacity="1.000000" stroke="none" d=" M376.128143,187.709320 C376.424438,187.249634 376.580688,187.163422 376.742004,187.152420 C388.641235,186.341156 388.583557,186.363205 393.981110,200.800873 C399.163696,214.663712 404.483063,228.475418 409.867828,242.639648 C406.141479,242.639648 402.432922,242.639648 398.547211,242.639648 C398.533844,242.627441 398.166626,242.458176 398.114929,242.220306 C396.307465,233.905502 390.897552,231.498398 383.077637,232.991425 C382.756073,233.052826 382.405029,233.045547 382.080414,232.992477 C374.100922,231.687927 368.146362,233.580063 367.259033,242.677643 C363.357056,242.993942 359.972168,243.268326 355.466187,243.633591 C362.351044,225.010818 369.170746,206.564362 376.128143,187.709320 M383.424500,222.000748 C385.215698,222.000748 387.006927,222.000748 389.669006,222.000748 C387.260193,215.684357 385.092010,209.999054 382.561462,203.363495 C379.971741,210.083511 377.803589,215.709686 375.379181,222.000748 C378.294189,222.000748 380.397583,222.000748 383.424500,222.000748 z"/>
  <path fill="#FFDB1E" opacity="1.000000" stroke="none" d=" M617.001221,200.849121 C616.999573,193.637802 620.267334,187.904938 625.365662,186.256943 C634.741821,183.226227 642.466431,185.917786 649.075439,195.226669 C646.521179,197.422592 643.945129,199.637314 641.510254,201.730591 C638.630554,200.156204 635.876465,198.246002 632.827332,197.178223 C631.568909,196.737534 629.677124,198.105408 628.073364,198.650696 C628.700623,200.228271 628.923767,202.208603 630.025085,203.313705 C634.798645,208.103607 639.960815,212.506821 644.724609,217.305878 C648.684998,221.295609 650.549316,226.212708 650.026306,231.983154 C649.534424,237.411087 645.838196,240.620575 641.646667,242.593246 C633.466248,246.443161 619.682129,245.401596 614.238770,234.578506 C614.028625,234.160583 614.047791,233.627335 613.855286,232.573990 C616.748230,230.947250 619.750061,229.259247 622.685059,227.608856 C624.188721,229.324631 625.265686,230.714233 626.505859,231.938522 C630.291687,235.676041 633.748535,235.964935 636.595825,232.875870 C639.318176,229.922272 638.623291,226.729156 634.662781,223.142044 C630.016785,218.934036 625.139282,214.911423 621.001587,210.241837 C618.934082,207.908508 618.289429,204.314423 617.001221,200.849121 z"/>
  <path fill="#FFDB1E" opacity="1.000000" stroke="none" d=" M691.001221,199.975586 C691.145264,190.773514 696.005798,186.503296 704.669495,185.856384 C712.906860,185.241318 718.498413,188.630127 723.254028,195.305878 C720.528809,197.563187 717.816772,199.809555 716.020630,201.297302 C711.881104,199.690216 708.525818,197.843536 704.949890,197.173141 C702.139465,196.646271 700.910767,198.876129 702.883545,201.212860 C705.806274,204.674774 709.146790,207.784973 712.323730,211.030914 C717.846252,216.673340 724.973633,221.148224 724.107605,230.845963 C723.498169,237.670624 718.825439,243.276901 711.926941,244.001205 C704.542175,244.776550 697.357361,244.535034 691.701843,238.877731 C690.370239,237.545731 688.683960,234.587830 689.240845,233.733170 C690.702332,231.490173 693.186096,229.787552 695.557678,228.359741 C696.089722,228.039398 697.877319,229.655853 698.999146,230.497681 C700.819946,231.864044 702.465027,234.301346 704.373108,234.503403 C706.775696,234.757812 710.310608,233.926025 711.582214,232.231216 C712.610535,230.860748 711.844788,226.765579 710.422363,225.191620 C706.015320,220.314972 700.799622,216.180710 696.125366,211.529663 C693.112671,208.532028 690.384705,205.185135 691.001221,199.975586 z"/>
  <path fill="#FFDB1D" opacity="1.000000" stroke="none" d=" M520.877686,142.376373 C513.141174,150.446732 502.743195,152.710297 494.703491,148.121353 C492.331879,146.767654 489.981873,144.913544 488.432312,142.717102 C486.993195,140.677200 485.165863,137.932709 489.269714,135.831345 C492.410889,134.222900 494.949829,130.709366 498.080658,135.883957 C499.089508,137.551376 501.100006,139.552261 502.762421,139.657303 C505.067078,139.802917 508.000519,138.889496 509.709076,137.361145 C511.921753,135.381790 511.007507,132.582748 508.960602,130.513840 C503.536499,125.031372 498.235809,119.410553 492.564270,114.194626 C488.399445,110.364395 487.931244,105.676003 489.587769,101.139923 C491.602600,95.622681 495.627838,92.043198 502.012695,91.907059 C507.584534,91.788246 512.933533,92.141014 517.096313,96.108604 C518.616028,97.557137 520.341736,100.757797 519.714783,102.118149 C517.899292,106.057388 514.217651,106.284729 510.968658,104.648209 C508.226624,103.267067 504.880371,103.085518 501.463348,102.294746 C500.143341,107.923256 503.713745,110.179192 506.417175,112.774033 C510.253326,116.456078 514.359192,119.865562 518.084900,123.652161 C523.337463,128.990555 522.774719,135.443024 520.877686,142.376373 z"/>
  <path fill="#FFDB1C" opacity="1.000000" stroke="none" d=" M595.285767,193.273102 C596.459290,191.066681 597.394409,189.169647 598.378967,187.172256 C601.754150,187.172256 605.215454,187.172256 609.508484,187.172256 C608.299805,190.520538 607.481567,193.591568 606.119751,196.398911 C602.869873,203.098541 598.606628,209.412827 596.203979,216.383026 C594.334961,221.805176 594.551270,227.972992 594.046082,233.827133 C593.794128,236.747437 594.002197,239.707443 594.002197,242.824753 C590.331238,242.824753 587.029602,242.824753 583.000671,242.824753 C583.000671,236.664734 583.319519,230.394424 582.869934,224.179733 C582.635132,220.934494 581.429688,217.603683 580.000000,214.630127 C575.861755,206.023651 571.379150,197.582932 567.073608,189.056015 C566.880493,188.673584 567.097534,188.084000 567.154480,187.003067 C570.062683,187.003067 573.022278,186.726044 575.885437,187.130844 C577.141174,187.308365 578.574463,188.655151 579.284058,189.852203 C582.407043,195.120468 585.295410,200.527832 588.657959,206.585968 C590.963074,201.894608 593.005188,197.738541 595.285767,193.273102 z"/>
  <path fill="#FFDA19" opacity="1.000000" stroke="none" d=" M676.000000,223.106857 C676.000000,229.921799 676.000000,236.256943 676.000000,242.795074 C672.309998,242.795074 668.884338,242.795074 665.003540,242.795074 C665.003540,227.538605 665.003540,212.466202 665.003540,197.129379 C661.606140,197.129379 658.655640,197.129379 655.352600,197.129379 C655.352600,193.803757 655.352600,190.735138 655.352600,187.020309 C664.932739,187.020309 674.699951,186.888351 684.449829,187.238510 C685.355896,187.271042 686.938416,190.435822 686.789062,192.011856 C686.623901,193.754120 685.168213,196.161911 683.654480,196.793411 C681.668457,197.621887 679.076050,196.996704 676.000000,196.996704 C676.000000,205.596664 676.000000,214.111862 676.000000,223.106857 z"/>
  <path fill="#FFDA19" opacity="1.000000" stroke="none" d=" M375.000000,131.969376 C375.000000,137.792389 375.000000,143.131241 375.000000,148.735123 C371.756256,148.735123 368.667816,148.735123 365.153046,148.735123 C365.153046,133.693726 365.153046,118.644318 365.153046,103.154190 C361.687592,103.154190 358.618103,103.154190 355.278442,103.154190 C355.278442,99.656578 355.278442,96.593155 355.278442,93.004784 C364.572052,93.004784 373.832245,92.909325 383.084167,93.142967 C384.079559,93.168106 385.590942,94.976074 385.869263,96.185684 C386.334045,98.205566 385.996155,100.410141 385.996155,102.962952 C382.251007,102.962952 378.835754,102.962952 375.000000,102.962952 C375.000000,112.759132 375.000000,122.122177 375.000000,131.969376 z"/>
  <path fill="#FFDA1A" opacity="1.000000" stroke="none" d=" M534.999146,219.999969 C534.999146,208.872253 534.999146,198.244537 534.999146,187.309311 C538.628662,187.309311 542.023071,187.309311 546.069092,187.309311 C546.069092,202.636749 546.069092,218.002777 546.069092,233.774872 C551.185486,233.774872 556.267273,233.774872 561.819092,233.774872 C562.046753,237.047180 562.248718,239.950119 562.452087,242.873444 C553.508057,242.873444 544.558105,242.873444 534.999146,242.873444 C534.999146,235.341599 534.999146,227.920776 534.999146,219.999969 z"/>
  <path fill="#FFDB1D" opacity="1.000000" stroke="none" d=" M7.001184,167.962708 C7.334503,159.395615 7.541497,151.312531 8.077032,143.251266 C8.240791,140.786255 8.682281,137.829315 13.074220,138.129089 C12.219771,151.266220 11.370260,164.327454 10.497414,177.747452 C8.304751,178.373932 6.690498,178.263901 6.968151,174.940552 C7.147585,172.792816 7.001442,170.617859 7.001184,167.962708 z"/>
  <path fill="#FFDD2C" opacity="1.000000" stroke="none" d=" M81.825912,33.018440 C85.805008,35.041027 83.104774,36.599361 81.651901,37.762817 C77.232635,41.301758 72.601578,44.574795 68.120674,48.038921 C66.313461,49.436054 64.862976,51.381325 62.913826,52.481060 C61.317184,53.381905 59.221859,53.398899 56.972698,52.887196 C63.591946,44.007973 71.696960,37.478439 81.825912,33.018440 z"/>
  <path fill="#FFDB21" opacity="1.000000" stroke="none" d=" M328.325012,186.033234 C328.828613,190.994431 329.300476,196.007965 328.836395,200.933319 C328.432037,205.225159 327.220093,209.499710 325.857697,213.613922 C325.302002,215.291885 323.254303,217.843658 322.152893,217.714661 C318.943451,217.338760 320.401337,214.954071 320.895966,212.847397 C322.741394,204.987640 324.269958,197.053955 326.045288,189.176804 C326.298706,188.052383 327.255493,187.086502 328.325012,186.033234 z"/>
  <path fill="#FFDC23" opacity="1.000000" stroke="none" d=" M309.726257,239.766785 C311.341888,236.920563 312.457214,234.176788 314.132172,231.832901 C315.035522,230.568771 316.896576,229.988983 318.325623,229.100464 C318.469849,230.616501 319.231110,232.437119 318.657654,233.598862 C315.088013,240.830460 311.320374,247.971802 307.337097,254.983276 C306.764221,255.991684 304.674652,256.138489 303.286926,256.684021 C303.185211,255.115509 302.511353,253.285416 303.086914,252.026566 C304.965607,247.917450 307.299957,244.016663 309.726257,239.766785 z"/>
  <path fill="#FFDC25" opacity="1.000000" stroke="none" d=" M11.025604,208.817001 C9.822040,202.543411 8.647125,196.695496 7.451026,190.742126 C11.205935,189.106461 12.377827,190.793762 12.986058,193.497543 C14.827009,201.681091 16.743490,209.848862 18.444990,218.061218 C18.679379,219.192520 17.864136,220.541275 17.534828,221.789368 C16.480923,221.128937 14.849659,220.699478 14.476464,219.766693 C13.109242,216.349304 12.160546,212.764450 11.025604,208.817001 z"/>
  <path fill="#FFDC27" opacity="1.000000" stroke="none" d=" M38.757362,80.741486 C34.439934,87.991531 34.256294,88.110077 29.609638,86.223991 C31.520897,83.184021 33.339714,80.183983 35.264507,77.253555 C38.526787,72.286850 41.728600,67.269806 45.260361,62.499382 C46.000553,61.499584 48.059395,61.476044 49.510590,61.002632 C49.603275,62.533070 50.351330,64.492279 49.677956,65.521515 C46.329304,70.639809 42.606380,75.513237 38.757362,80.741486 z"/>
  <path fill="#FFDC23" opacity="1.000000" stroke="none" d=" M20.205147,103.299194 C21.790155,100.901108 23.118729,98.786140 24.447302,96.671181 C24.975195,96.749168 25.503088,96.827164 26.030979,96.905151 C26.285561,98.447838 27.164829,100.222878 26.691715,101.494904 C23.950926,108.863876 20.996555,116.160271 17.846869,123.364235 C17.251545,124.725845 15.451229,125.560631 13.662583,126.218346 C12.971012,117.647942 17.251833,110.844795 20.205147,103.299194 z"/>
  <path fill="#FFDC25" opacity="1.000000" stroke="none" d=" M277.688019,284.795624 C283.621674,278.000183 289.281006,271.445587 294.940308,264.891022 C295.436798,264.979614 295.933319,265.068237 296.429840,265.156860 C296.544800,266.660980 297.351532,268.709961 296.664398,269.582367 C291.531219,276.099640 286.204437,282.475372 280.672180,288.657288 C279.679443,289.766602 277.456360,289.774872 275.801361,290.291504 C276.338806,288.539825 276.876221,286.788177 277.688019,284.795624 z"/>
  <path fill="#FFDC27" opacity="1.000000" stroke="none" d=" M267.145721,297.645813 C264.329254,300.697113 261.572845,303.931946 258.154663,306.144562 C253.881912,308.910339 249.105881,310.923920 244.459335,313.072388 C242.953354,313.768707 241.171082,313.867523 239.515198,314.239685 C239.175293,313.839569 238.835388,313.439453 238.495483,313.039368 C239.338226,311.859558 239.925232,310.253265 241.065445,309.569489 C248.222641,305.277588 255.459152,301.110352 262.792908,297.129333 C263.819000,296.572327 265.522247,297.262726 267.145721,297.645813 z"/>
  <path fill="#FFDD2A" opacity="1.000000" stroke="none" d=" M307.275482,83.773293 C308.615021,86.200920 309.684021,88.368752 311.499023,92.049438 C309.010193,91.364853 306.828430,91.442291 306.151184,90.470856 C300.919830,82.967270 295.927307,75.293961 291.022858,67.570328 C290.478027,66.712341 290.949249,65.209183 290.949249,64.005241 C291.610962,63.812889 292.272675,63.620537 292.934387,63.428185 C297.624573,70.123283 302.314728,76.818382 307.275482,83.773293 z"/>
  <path fill="#FFDC23" opacity="1.000000" stroke="none" d=" M319.957581,122.139053 C317.705811,115.412689 315.481537,109.096947 313.257233,102.781204 C313.813080,102.378395 314.368927,101.975586 314.924744,101.572777 C316.262878,102.617073 318.356506,103.403801 318.814789,104.748062 C321.507538,112.646553 323.868866,120.660614 326.188782,128.680023 C326.449188,129.580109 325.747223,130.758591 325.491547,131.807968 C324.340485,131.203705 322.581512,130.874832 322.158325,129.940781 C321.108826,127.624367 320.669464,125.031494 319.957581,122.139053 z"/>
  <path fill="#FFDB1E" opacity="1.000000" stroke="none" d=" M150.281097,13.007445 C145.980621,13.677215 142.162445,14.591831 138.297775,14.877572 C136.769791,14.990546 135.138351,13.704129 133.554001,13.054891 C133.686035,12.158106 133.818069,11.261321 133.950104,10.364537 C143.949066,9.578652 153.944061,8.726302 163.954376,8.131790 C164.764038,8.083704 165.678696,9.804049 167.575348,11.772357 C160.797882,12.266864 155.771332,12.633618 150.281097,13.007445 z"/>
  <path fill="#FFDB21" opacity="1.000000" stroke="none" d=" M109.998001,24.000797 C104.724701,26.106689 99.843422,28.157482 94.962135,30.208275 C94.548500,29.964323 94.134865,29.720373 93.721222,29.476421 C94.506973,27.980793 94.923058,25.677906 96.138771,25.121204 C103.745506,21.637894 111.502739,18.473246 119.290855,15.408173 C120.307487,15.008068 121.786507,15.782861 123.051361,16.013464 C123.211166,16.651075 123.370972,17.288687 123.530785,17.926296 C119.150528,19.932764 114.770264,21.939232 109.998001,24.000797 z"/>
  <path fill="#FFDC27" opacity="1.000000" stroke="none" d=" M273.266418,43.765930 C277.854828,47.449780 282.874512,50.317600 284.265625,56.131447 C283.859619,56.584362 283.453613,57.037273 283.047607,57.490185 C275.332306,51.442764 267.568085,45.455437 259.969025,39.265297 C259.103607,38.560303 259.164917,36.717606 258.796509,35.402447 C259.242065,34.985569 259.687653,34.568687 260.133209,34.151806 C264.424103,37.271740 268.714966,40.391674 273.266418,43.765930 z"/>
  <path fill="#FFDC23" opacity="1.000000" stroke="none" d=" M238.926605,22.984324 C242.741180,25.901585 248.547241,25.672506 249.768097,31.783905 C239.928818,28.775803 230.513397,24.796986 221.439835,20.019663 C220.505753,19.527849 220.302338,17.648275 219.186096,15.105647 C226.640045,18.121401 232.590027,20.528673 238.926605,22.984324 z"/>
  <path fill="#FFDD2A" opacity="1.000000" stroke="none" d=" M33.738632,250.288193 C35.459351,253.381134 36.951626,256.168976 38.443897,258.956818 C38.149246,259.394104 37.854591,259.831390 37.559940,260.268707 C36.055908,259.636536 33.842876,259.431488 33.162979,258.302856 C28.771158,251.012512 24.640343,243.559677 20.645960,236.042175 C20.178925,235.163193 21.070307,233.562454 21.331932,232.296310 C22.394733,232.871490 23.909149,233.174805 24.445993,234.066589 C27.593971,239.295898 30.513575,244.662659 33.738632,250.288193 z"/>
  <path fill="#FFDC23" opacity="1.000000" stroke="none" d=" M59.836708,290.335876 C53.798637,283.551910 48.005009,277.048431 42.236130,270.523041 C42.063229,270.327484 42.149460,269.902802 42.012012,268.639526 C43.889790,269.298279 45.813046,269.403961 46.817959,270.418915 C52.834290,276.495392 58.661606,282.760345 64.489288,289.020752 C65.301888,289.893677 65.767586,291.089569 66.393875,292.135956 C66.059982,292.571472 65.726089,293.006989 65.392197,293.442474 C63.623055,292.499359 61.853912,291.556213 59.836708,290.335876 z"/>
  <path fill="#FFDB1E" opacity="1.000000" stroke="none" d=" M221.283508,318.307007 C223.430588,317.458435 225.251953,316.851685 227.736328,316.024048 C228.210526,317.307800 228.756866,318.786865 229.586746,321.033508 C219.158661,323.783783 209.330811,326.375732 199.502975,328.967682 C199.178619,328.278351 198.854263,327.589050 198.529892,326.899719 C199.522186,325.937225 200.355469,324.463715 201.533203,324.097290 C207.961288,322.097473 214.474091,320.369934 221.283508,318.307007 z"/>
  <path fill="#FFDB21" opacity="1.000000" stroke="none" d=" M90.263306,306.980682 C95.449623,308.800812 100.769951,309.844574 103.941307,316.348785 C100.968338,315.734650 98.976608,315.729340 97.389450,314.925323 C90.372391,311.370636 83.405563,307.702637 76.567291,303.817383 C74.385681,302.577911 72.334129,300.594299 75.729790,297.927002 C80.413437,300.919678 85.142403,303.941345 90.263306,306.980682 z"/>
  <path fill="#FFDB1E" opacity="1.000000" stroke="none" d=" M189.107880,9.000945 C195.941559,10.039597 202.318588,11.077931 208.600281,12.100747 C209.714996,15.297418 208.549286,16.423229 205.684448,15.986236 C197.172455,14.687843 188.653931,13.417198 180.182083,11.890718 C179.147217,11.704251 178.381134,10.026001 177.490494,9.039093 C177.846008,8.592995 178.201538,8.146895 178.557053,7.700797 C181.921768,8.134074 185.286484,8.567351 189.107880,9.000945 z"/>
  <path fill="#FFDA1C" opacity="1.000000" stroke="none" d=" M330.999390,158.044998 C330.999359,163.494904 330.999359,168.453644 330.999359,175.201645 C329.049835,173.617325 327.158783,172.806396 327.139923,171.954010 C326.928925,162.425369 327.006714,152.890350 327.006714,143.448196 C330.323395,143.893326 331.031372,146.040009 330.999390,158.044998 z"/>
  <path fill="#FFDB21" opacity="1.000000" stroke="none" d=" M120.803467,324.034546 C113.351814,322.332275 113.351814,322.332275 113.197342,317.860870 C123.032089,320.512207 132.707245,323.120544 142.810181,325.844208 C143.615494,327.925842 142.973175,329.668091 139.883575,328.951477 C133.618973,327.498444 127.433113,325.705933 120.803467,324.034546 z"/>
  <path fill="#FFDA1A" opacity="1.000000" stroke="none" d=" M157.306274,330.995758 C156.063309,329.981934 155.290817,328.971405 153.947433,327.213989 C165.628281,327.213989 175.901459,327.213989 186.498230,327.213989 C187.639221,329.836853 187.205078,331.116333 183.730438,331.054352 C175.081650,330.900024 166.428284,331.000732 157.306274,330.995758 z"/>
  <path fill="#FFF8D5" opacity="1.000000" stroke="none" d=" M452.471252,190.211792 C452.842255,200.926987 452.842255,211.864471 452.842255,223.701553 C451.902985,222.603165 451.455109,222.079407 451.035400,221.232758 C451.375183,219.449844 451.937408,217.993195 451.957184,216.529221 C452.074524,207.831787 452.066315,199.132660 452.471252,190.211792 z"/>
  <path fill="#FFFFFC" opacity="1.000000" stroke="none" d=" M430.388672,239.947968 C429.933533,230.016174 429.860291,219.863342 429.834106,209.710403 C429.833191,209.357666 430.279541,208.981766 430.580017,208.678680 C430.616791,208.641602 431.044250,208.991837 431.419006,209.520233 C431.365570,217.867554 431.189514,225.857361 430.997864,233.846786 C430.950836,235.807449 430.852783,237.766907 430.388672,239.947968 z"/>
  <path fill="#FFF4BB" opacity="1.000000" stroke="none" d=" M181.060852,171.672104 C180.857498,171.463272 180.630981,170.959091 180.690674,170.325012 C180.997131,170.589005 181.017395,170.982880 181.060852,171.672104 z"/>
  <path fill="#FFF4BB" opacity="1.000000" stroke="none" d=" M190.027618,180.693634 C189.702591,180.838776 189.322418,180.711136 188.987717,180.250275 C189.346283,180.085007 189.659363,180.252914 190.027618,180.693634 z"/>
  <path fill="#FFF4BB" opacity="1.000000" stroke="none" d=" M189.027710,179.693909 C188.703384,179.838654 188.323853,179.710480 187.988556,179.249619 C188.346054,179.084946 188.659271,179.252960 189.027710,179.693909 z"/>
  <path fill="#FFF4BB" opacity="1.000000" stroke="none" d=" M188.027893,178.694305 C187.704758,178.838379 187.326340,178.709335 186.990082,178.248505 C187.345688,178.084854 187.659149,178.253021 188.027893,178.694305 z"/>
  <path fill="#FFF4BB" opacity="1.000000" stroke="none" d=" M187.028000,177.694550 C186.705490,177.838257 186.327652,177.708725 185.990845,177.247864 C186.345490,177.084808 186.659073,177.253067 187.028000,177.694550 z"/>
  <path fill="#FFF4BB" opacity="1.000000" stroke="none" d=" M186.028076,176.694778 C185.706314,176.838120 185.329147,176.708084 184.991730,176.247223 C185.345215,176.084732 185.658951,176.253067 186.028076,176.694778 z"/>
  <path fill="#FFF4BB" opacity="1.000000" stroke="none" d=" M185.028214,175.695068 C184.707016,175.838013 184.330414,175.707474 183.992462,175.246597 C184.345032,175.084702 184.658905,175.253143 185.028214,175.695068 z"/>
  <path fill="#FFF4BB" opacity="1.000000" stroke="none" d=" M184.028351,174.695404 C183.708237,174.837769 183.332626,174.706451 182.993805,174.245605 C183.344696,174.084610 183.658783,174.253174 184.028351,174.695404 z"/>
  <path fill="#FFF4BB" opacity="1.000000" stroke="none" d=" M183.028442,173.695663 C182.708710,173.837738 182.333466,173.706039 181.994293,173.245178 C182.344559,173.084625 182.658752,173.253250 183.028442,173.695663 z"/>
  <path fill="#FFF4BB" opacity="1.000000" stroke="none" d=" M182.028519,172.695862 C181.708923,172.837738 181.333847,172.705780 180.994492,172.244904 C181.344498,172.084656 181.658752,172.253342 182.028519,172.695862 z"/>
  <path fill="#FFF4BB" opacity="1.000000" stroke="none" d=" M191.027496,181.693390 C190.701752,181.838928 190.320877,181.711777 189.986816,181.250946 C190.346558,181.085068 190.659470,181.252899 191.027496,181.693390 z"/>
  <path fill="#FFF4BB" opacity="1.000000" stroke="none" d=" M191.915726,183.181671 C191.525360,183.222549 191.200058,182.908875 190.957947,182.258713 C191.354370,182.223831 191.667587,182.525467 191.915726,183.181671 z"/>
  <path fill="#FFDB1C" opacity="1.000000" stroke="none" d=" M147.372284,135.140884 C155.990875,137.373932 160.736435,146.239746 160.088104,153.571335 C159.553528,159.616837 154.325867,166.620209 148.016296,168.489563 C137.306412,171.662613 128.913849,163.448578 127.970337,154.118896 C126.708351,141.640015 134.440292,133.506516 147.372284,135.140884 z"/>
</svg>